/* XPM */
static char *_[] = {
/* columns rows colors chars-per-pixel */
"15 15 256 2 ",
"   c #000000",
".  c #FF0000",
"X  c #00FF00",
"o  c #FFFF00",
"O  c #0000FF",
"+  c #FF00FF",
"@  c #00FFFF",
"#  c #FFFFFF",
"$  c #DBDBDB",
"%  c #B6B6B6",
"&  c #929292",
"*  c #6D6D6D",
"=  c #494949",
"-  c #242424",
";  c #DB0000",
":  c #B60000",
">  c #920000",
",  c #6D0000",
"<  c #490000",
"1  c #240000",
"2  c #00DB00",
"3  c #00B600",
"4  c #009200",
"5  c #006D00",
"6  c #004900",
"7  c #002400",
"8  c #DBDB00",
"9  c #B6B600",
"0  c #929200",
"q  c #6D6D00",
"w  c #494900",
"e  c #242400",
"r  c #0000DB",
"t  c #0000B6",
"y  c #000092",
"u  c #00006D",
"i  c #000049",
"p  c #000024",
"a  c #DB00DB",
"s  c #B600B6",
"d  c #920092",
"f  c #6D006D",
"g  c #490049",
"h  c #240024",
"j  c #00DBDB",
"k  c #00B6B6",
"l  c #009292",
"z  c #006D6D",
"x  c #004949",
"c  c #002424",
"v  c #FFDBDB",
"b  c #DBB6B6",
"n  c #B69292",
"m  c #926D6D",
"M  c #6D4949",
"N  c #492424",
"B  c #FFB6B6",
"V  c #DB9292",
"C  c #B66D6D",
"Z  c #924949",
"A  c #6D2424",
"S  c #FF9292",
"D  c #DB6D6D",
"F  c #B64949",
"G  c #922424",
"H  c #FF6D6D",
"J  c #DB4949",
"K  c #B62424",
"L  c #FF4949",
"P  c #DB2424",
"I  c #FF2424",
"U  c #DBFFDB",
"Y  c #B6DBB6",
"T  c #92B692",
"R  c #6D926D",
"E  c #496D49",
"W  c #244924",
"Q  c #B6FFB6",
"!  c #92DB92",
"~  c #6DB66D",
"^  c #499249",
"/  c #246D24",
"(  c #92FF92",
")  c #6DDB6D",
"_  c #49B649",
"`  c #249224",
"'  c #6DFF6D",
"]  c #49DB49",
"[  c #24B624",
"{  c #49FF49",
"}  c #24DB24",
"|  c #24FF24",
" . c #DBDBFF",
".. c #B6B6DB",
"X. c #9292B6",
"o. c #6D6D92",
"O. c #49496D",
"+. c #242449",
"@. c #B6B6FF",
"#. c #9292DB",
"$. c #6D6DB6",
"%. c #494992",
"&. c #24246D",
"*. c #9292FF",
"=. c #6D6DDB",
"-. c #4949B6",
";. c #242492",
":. c #6D6DFF",
">. c #4949DB",
",. c #2424B6",
"<. c #4949FF",
"1. c #2424DB",
"2. c #2424FF",
"3. c #FFFFDB",
"4. c #DBDBB6",
"5. c #B6B692",
"6. c #92926D",
"7. c #6D6D49",
"8. c #494924",
"9. c #FFFFB6",
"0. c #DBDB92",
"q. c #B6B66D",
"w. c #929249",
"e. c #6D6D24",
"r. c #FFFF92",
"t. c #DBDB6D",
"y. c #B6B649",
"u. c #929224",
"i. c #FFFF6D",
"p. c #DBDB49",
"a. c #B6B624",
"s. c #FFFF49",
"d. c #DBDB24",
"f. c #FFFF24",
"g. c #FFDBFF",
"h. c #DBB6DB",
"j. c #B692B6",
"k. c #926D92",
"l. c #6D496D",
"z. c #492449",
"x. c #FFB6FF",
"c. c #DB92DB",
"v. c #B66DB6",
"b. c #924992",
"n. c #6D246D",
"m. c #FF92FF",
"M. c #DB6DDB",
"N. c #B649B6",
"B. c #922492",
"V. c #FF6DFF",
"C. c #DB49DB",
"Z. c #B624B6",
"A. c #FF49FF",
"S. c #DB24DB",
"D. c #FF24FF",
"F. c #DBFFFF",
"G. c #B6DBDB",
"H. c #92B6B6",
"J. c #6D9292",
"K. c #496D6D",
"L. c #244949",
"P. c #B6FFFF",
"I. c #92DBDB",
"U. c #6DB6B6",
"Y. c #499292",
"T. c #246D6D",
"R. c #92FFFF",
"E. c #6DDBDB",
"W. c #49B6B6",
"Q. c #249292",
"!. c #6DFFFF",
"~. c #49DBDB",
"^. c #24B6B6",
"/. c #49FFFF",
"(. c #24DBDB",
"). c #24FFFF",
"_. c #FFDBB6",
"`. c #DBB692",
"'. c #B6926D",
"]. c #926D49",
"[. c #6D4924",
"{. c #492400",
"}. c #FFB692",
"|. c #DB926D",
" X c #B66D49",
".X c #924924",
"XX c #6D2400",
"oX c #FFB6DB",
"OX c #DB92B6",
"+X c #B66D92",
"@X c #92496D",
"#X c #6D2449",
"$X c #490024",
"%X c #FF92B6",
"&X c #DB6D92",
"*X c #B6496D",
"=X c #922449",
"-X c #6D0024",
";X c #DBB6FF",
":X c #B692DB",
">X c #926DB6",
",X c #6D4992",
"<X c #49246D",
"1X c #240049",
"2X c #B692FF",
"3X c #926DDB",
"4X c #6D49B6",
"5X c #492492",
"6X c #24006D",
"7X c #B6DBFF",
"8X c #92B6DB",
"9X c #6D92B6",
"0X c #496D92",
"qX c #24496D",
"wX c #002449",
"eX c #92B6FF",
"rX c #6D92DB",
"tX c #496DB6",
"yX c #244992",
"uX c #00246D",
"iX c #B6FFDB",
"pX c #92DBB6",
"aX c #6DB692",
"sX c #49926D",
"dX c #246D49",
"fX c #004924",
"gX c #92FFB6",
"hX c #6DDB92",
"jX c #49B66D",
"kX c #249249",
"lX c #006D24",
"zX c #DBFFB6",
"xX c #B6DB92",
"cX c #92B66D",
"vX c #6D9249",
"bX c #496D24",
"nX c #244900",
"mX c #B6FF92",
"MX c #92DB6D",
"NX c #6DB649",
"BX c #499224",
"VX c #246D00",
"CX c #FFB600",
"ZX c #DB9200",
"AX c #B66D00",
"SX c #924900",
"DX c #FF00B6",
"FX c #DB0092",
"GX c #B6006D",
"HX c #920049",
"JX c #00B6FF",
"KX c #0092DB",
"LX c #006DB6",
"PX c #004992",
"IX c #000000",
"UX c #000000",
/* pixels */
"= = = = = = = = = = = = = = = ",
"= % % % % % % % % % % % % % = ",
"= % % % % % % % % % % % % % = ",
"= % % % % . . . . . % % % % = ",
"= % % % . % % % % . . % % % = ",
"= % % % % % % % % . . % % % = ",
"= % % % % % . . . . % % % % = ",
"= % % % % % % % . . . % % % = ",
"= % % % % % % % % . . % % % = ",
"= % % % % % % % % . . % % % = ",
"= % % % . % % % . . . % % % = ",
"= % % % % . . . . % % % % % = ",
"= % % % % % % % % % % % % % = ",
"= % % % % % % % % % % % % % = ",
"= = = = = = = = = = = = = = = "
};
